<?xml version="1.0" standalone="no"?>
<!DOCTYPE svg PUBLIC "-//W3C//DTD SVG 20010904//EN"
 "http://www.w3.org/TR/2001/REC-SVG-20010904/DTD/svg10.dtd">
<svg version="1.0" xmlns="http://www.w3.org/2000/svg"
 width="260.000000pt" height="260.000000pt" viewBox="0 0 260.000000 260.000000"
 preserveAspectRatio="xMidYMid meet">
<metadata>
Created by potrace 1.11, written by Peter Selinger 2001-2013
</metadata>
<g transform="translate(0.000000,260.000000) scale(0.100000,-0.100000)"
fill="#000000" stroke="none">
<path d="M1135 2549 c-55 -4 -113 -13 -130 -18 -23 -8 -18 -8 25 -3 30 4 147
7 259 7 112 0 186 3 165 7 -77 12 -221 16 -319 7z"/>
<path d="M1178 2525 c-4 -4 -53 -11 -110 -15 -71 -6 -131 -19 -192 -39 -49
-17 -91 -29 -93 -27 -3 2 19 12 47 21 28 9 49 19 46 22 -7 7 -136 -39 -136
-49 0 -4 8 -5 18 -1 45 16 -1 -8 -70 -37 -104 -43 -205 -115 -318 -229 -106
-107 -151 -170 -212 -296 -60 -126 -39 -115 27 15 36 69 76 131 106 163 l50
52 -44 -65 c-25 -36 -52 -81 -62 -100 l-18 -35 23 20 c26 23 25 20 -14 -54
-15 -30 -40 -67 -55 -81 -57 -57 -99 -241 -102 -440 l-1 -125 -13 70 -12 70
-2 -67 c0 -37 5 -102 12 -145 11 -74 12 -76 16 -33 l4 45 12 -70 c7 -38 20
-86 29 -105 l16 -35 -5 35 c-3 19 10 -9 28 -63 19 -53 41 -105 50 -115 8 -9
27 -43 41 -74 14 -32 29 -58 33 -58 4 0 31 -33 58 -72 60 -85 164 -200 176
-192 4 2 36 -16 71 -42 111 -82 293 -159 458 -194 263 -54 615 11 835 156 287
189 474 469 530 792 11 60 16 166 18 319 2 196 -1 238 -17 298 -21 80 -70 183
-129 270 -49 74 -147 188 -155 180 -3 -3 4 -15 15 -28 11 -12 24 -29 28 -37 5
-8 -20 15 -54 52 -125 135 -368 269 -580 319 -87 21 -339 38 -353 24z m-394
-960 c33 -107 60 -195 61 -195 1 0 28 88 61 195 l58 195 193 0 193 0 0 -365 0
-365 -135 0 -135 0 -2 196 -3 196 -60 -196 -60 -196 -111 0 -110 0 -60 196
-59 196 -3 -196 -2 -196 -135 0 -135 0 0 365 0 365 193 0 192 0 59 -195z m949
173 c3 -13 20 -106 38 -206 20 -110 36 -176 40 -165 3 10 22 102 40 206 l34
187 152 0 152 0 -23 -82 c-13 -46 -59 -210 -102 -365 l-79 -283 -177 0 -176 0
-11 33 c-20 62 -191 678 -191 688 0 5 62 9 149 9 146 0 149 0 154 -22z m-1636
-600 c-3 -7 -5 -2 -5 12 0 14 2 19 5 13 2 -7 2 -19 0 -25z m10 -50 c-3 -8 -6
-5 -6 6 -1 11 2 17 5 13 3 -3 4 -12 1 -19z m10 -50 c-3 -7 -5 -2 -5 12 0 14 2
19 5 13 2 -7 2 -19 0 -25z m373 -593 c13 -14 21 -25 18 -25 -2 0 -15 11 -28
25 -13 14 -21 25 -18 25 2 0 15 -11 28 -25z"/>
<path d="M71 1054 c0 -11 3 -14 6 -6 3 7 2 16 -1 19 -3 4 -6 -2 -5 -13z"/>
<path d="M91 984 c-1 -15 45 -150 59 -171 11 -17 11 -17 6 2 -9 37 -65 180
-65 169z"/>
<path d="M197 753 c10 -29 77 -143 81 -139 2 2 -15 38 -38 80 -40 73 -56 95
-43 59z"/>
<path d="M560 340 c0 -10 59 -44 65 -38 2 2 -12 13 -31 26 -19 12 -34 18 -34
12z"/>
<path d="M780 210 c8 -5 20 -10 25 -10 6 0 3 5 -5 10 -8 5 -19 10 -25 10 -5 0
-3 -5 5 -10z"/>
</g>
</svg>
